<svg width="775" height="792" viewBox="0 0 775 792" fill="none" xmlns="http://www.w3.org/2000/svg">
<path d="M775 236.147L751.359 792L218.528 771.11C153.265 771.11 54.0131 747.988 3.74249 736.277L1.21234 735.688C1.21234 701.174 -1.51544 602.174 1.21234 554.037L25.7626 0L458.574 18.1651C458.574 18.1651 749.54 26.3395 758.633 44.5046C767.726 62.6697 774.697 186.495 775 236.147Z" fill="url(#paint0_linear_1_6)"/>
<path d="M775 236.147L751.359 792L218.528 771.11C153.265 771.11 54.0131 747.988 3.74249 736.277L1.21234 735.688C1.21234 701.174 -1.51544 602.174 1.21234 554.037L25.7626 0L458.574 18.1651C458.574 18.1651 749.54 26.3395 758.633 44.5046C767.726 62.6697 774.697 186.495 775 236.147Z" fill="url(#paint1_linear_1_6)" fill-opacity="0.2"/>
<defs>
<linearGradient id="paint0_linear_1_6" x1="0.303083" y1="742.954" x2="774.202" y2="24.5719" gradientUnits="userSpaceOnUse">
<stop stop-color="#FFD373"/>
<stop offset="0.281" stop-color="#EEDA59"/>
<stop offset="0.741" stop-color="#EEC959"/>
<stop offset="1" stop-color="#FFD755"/>
</linearGradient>
<linearGradient id="paint1_linear_1_6" x1="354.615" y1="774.743" x2="387.276" y2="-0.00300823" gradientUnits="userSpaceOnUse">
<stop offset="0.78" stop-opacity="0"/>
<stop offset="0.7801" stop-color="#EF8B11"/>
</linearGradient>
</defs>
</svg>
