<svg width="782" height="804" viewBox="0 0 782 804" fill="none" xmlns="http://www.w3.org/2000/svg">
<path d="M0.646654 556.076L32.8545 0.36466L564.984 29.4819C630.201 30.4886 729.026 55.151 779.08 67.6421L781.597 68.2703C781.064 102.798 782.262 201.88 778.792 249.995L745.704 803.875L313.481 779.026C313.481 779.026 22.8481 766.36 14.0424 748.048C5.23674 729.735 0.182796 605.752 0.646654 556.076Z" fill="url(#paint0_linear_1_10)"/>
<path d="M0.646654 556.076L32.8545 0.36466L564.984 29.4819C630.201 30.4886 729.026 55.151 779.08 67.6421L781.597 68.2703C781.064 102.798 782.262 201.88 778.792 249.995L745.704 803.875L313.481 779.026C313.481 779.026 22.8481 766.36 14.0424 748.048C5.23674 729.735 0.182796 605.752 0.646654 556.076Z" fill="url(#paint1_linear_1_10)" fill-opacity="0.2"/>
<defs>
<linearGradient id="paint0_linear_1_10" x1="782.618" y1="61.0154" x2="-2.60732" y2="766.876" gradientUnits="userSpaceOnUse">
<stop stop-color="#26AEEC"/>
<stop offset="0.196" stop-color="#59BFEE"/>
<stop offset="0.791" stop-color="#59BFEE"/>
<stop offset="1" stop-color="#45B3E5"/>
</linearGradient>
<linearGradient id="paint1_linear_1_10" x1="384.224" y1="798.295" x2="420.258" y2="15.8728" gradientUnits="userSpaceOnUse">
<stop offset="0.784366" stop-opacity="0"/>
<stop offset="0.786427" stop-color="#5187FA"/>
</linearGradient>
</defs>
</svg>
