<svg width="775" height="792" viewBox="0 0 775 792" fill="none" xmlns="http://www.w3.org/2000/svg">
<path d="M0 236.147L23.641 792L556.472 771.11C621.736 771.11 720.989 747.988 771.259 736.277L773.788 735.688C773.788 701.174 776.515 602.174 773.788 554.037L749.237 0L316.426 18.1651C316.426 18.1651 25.4595 26.3394 16.3668 44.5046C7.27415 62.6697 0.30309 186.495 0 236.147Z" fill="url(#paint0_linear_1_5)"/>
<path d="M0 236.147L23.641 792L556.472 771.11C621.736 771.11 720.989 747.988 771.259 736.277L773.788 735.688C773.788 701.174 776.515 602.174 773.788 554.037L749.237 0L316.426 18.1651C316.426 18.1651 25.4595 26.3394 16.3668 44.5046C7.27415 62.6697 0.30309 186.495 0 236.147Z" fill="url(#paint1_linear_1_5)" fill-opacity="0.2"/>
<defs>
<linearGradient id="paint0_linear_1_5" x1="774.697" y1="742.954" x2="0.797532" y2="24.5719" gradientUnits="userSpaceOnUse">
<stop stop-color="#E14C94"/>
<stop offset="0.196" stop-color="#EE59A1"/>
<stop offset="0.791" stop-color="#EE59A1"/>
<stop offset="1" stop-color="#E14C94"/>
</linearGradient>
<linearGradient id="paint1_linear_1_5" x1="387.5" y1="0" x2="430.897" y2="792.005" gradientUnits="userSpaceOnUse">
<stop offset="0.206778" stop-color="#D0207E"/>
<stop offset="0.208828" stop-opacity="0"/>
</linearGradient>
</defs>
</svg>
